<svg fill="none" height="196" viewBox="0 0 1102 196" width="1102" xmlns="http://www.w3.org/2000/svg"><g fill="#000"><path d="m319.588 88.6101c-.511-4.5384-2.621-8.054-6.328-10.5469-3.708-2.5248-8.374-3.7873-13.999-3.7873-4.027 0-7.51.6392-10.451 1.9176-2.94 1.2465-5.225 2.9723-6.855 5.1776-1.598 2.1733-2.397 4.6502-2.397 7.4307 0 2.3331.543 4.3466 1.63 6.0405 1.118 1.6939 2.572 3.1161 4.362 4.2667 1.822 1.119 3.772 2.061 5.849 2.829 2.077.735 4.075 1.342 5.993 1.821l9.588 2.493c3.132.767 6.344 1.806 9.636 3.116 3.291 1.311 6.344 3.036 9.156 5.178 2.813 2.141 5.082 4.794 6.808 7.958 1.758 3.164 2.636 6.951 2.636 11.362 0 5.561-1.438 10.499-4.314 14.813-2.845 4.315-6.983 7.719-12.417 10.212-5.401 2.493-11.937 3.739-19.607 3.739-7.351 0-13.711-1.167-19.081-3.5-5.369-2.333-9.572-5.641-12.608-9.923-3.036-4.315-4.714-9.429-5.034-15.341h14.862c.288 3.547 1.438 6.504 3.452 8.869 2.045 2.333 4.65 4.075 7.814 5.225 3.196 1.119 6.696 1.678 10.499 1.678 4.187 0 7.91-.655 11.17-1.965 3.292-1.343 5.881-3.196 7.766-5.561 1.886-2.398 2.829-5.194 2.829-8.39 0-2.908-.831-5.289-2.493-7.143-1.63-1.854-3.851-3.388-6.664-4.602-2.78-1.215-5.929-2.286-9.444-3.212l-11.602-3.165c-7.862-2.141-14.094-5.289-18.696-9.444-4.571-4.155-6.856-9.6517-6.856-16.4912 0-5.657 1.534-10.5948 4.602-14.8136 3.069-4.2187 7.223-7.4947 12.465-9.8278 5.241-2.365 11.154-3.5476 17.738-3.5476 6.647 0 12.512 1.1666 17.594 3.4997 5.114 2.3331 9.141 5.5451 12.081 9.636 2.94 4.0589 4.474 8.7251 4.602 13.9986zm25.43 72.3899v-73.6364h14.334v73.6364zm7.239-84.9982c-2.493 0-4.634-.831-6.424-2.4929-1.758-1.6939-2.637-3.7074-2.637-6.0405 0-2.3651.879-4.3786 2.637-6.0405 1.79-1.6939 3.931-2.5408 6.424-2.5408s4.618.8469 6.376 2.5408c1.79 1.6619 2.685 3.6754 2.685 6.0405 0 2.3331-.895 4.3466-2.685 6.0405-1.758 1.6619-3.883 2.4929-6.376 2.4929zm19.629 84.9982v-73.6364h13.759v11.9851h.911c1.534-4.0589 4.043-7.223 7.526-9.4922 3.484-2.3011 7.655-3.4517 12.513-3.4517 4.922 0 9.045 1.1506 12.368 3.4517 3.356 2.3012 5.833 5.4652 7.431 9.4922h.767c1.758-3.9311 4.555-7.0632 8.39-9.3963 3.835-2.365 8.405-3.5476 13.711-3.5476 6.679 0 12.129 2.0934 16.347 6.2802 4.251 4.1868 6.376 10.499 6.376 18.936v49.379h-14.334v-48.036c0-4.986-1.358-8.598-4.075-10.835-2.716-2.237-5.96-3.3556-9.732-3.3556-4.666 0-8.293 1.4386-10.882 4.3146-2.589 2.845-3.883 6.504-3.883 10.978v46.934h-14.286v-48.947c0-3.995-1.247-7.207-3.74-9.636-2.493-2.4291-5.737-3.6436-9.732-3.6436-2.716 0-5.225.7191-7.526 2.1576-2.269 1.406-4.107 3.372-5.513 5.896-1.375 2.525-2.062 5.45-2.062 8.773v45.4zm112.562 27.614v-101.2504h13.998v11.9372h1.199c.831-1.5341 2.029-3.3079 3.595-5.3214s3.739-3.7713 6.52-5.2734c2.781-1.5341 6.456-2.3012 11.026-2.3012 5.945 0 11.25 1.5022 15.917 4.5064 4.666 3.0043 8.325 7.3349 10.978 12.9918 2.685 5.657 4.027 12.465 4.027 20.423s-1.327 14.781-3.979 20.47c-2.653 5.657-6.296 10.02-10.931 13.088-4.634 3.036-9.923 4.554-15.868 4.554-4.474 0-8.134-.751-10.978-2.253-2.813-1.502-5.018-3.26-6.616-5.273-1.598-2.014-2.828-3.804-3.691-5.37h-.863v39.072zm14.046-64.432c0 5.177.751 9.716 2.253 13.615s3.676 6.951 6.52 9.156c2.845 2.174 6.328 3.26 10.451 3.26 4.283 0 7.862-1.134 10.739-3.403 2.876-2.301 5.049-5.418 6.52-9.349 1.502-3.931 2.253-8.357 2.253-13.279 0-4.858-.735-9.221-2.205-13.088-1.439-3.867-3.612-6.919-6.52-9.156-2.877-2.2377-6.472-3.3563-10.787-3.3563-4.155 0-7.67 1.0706-10.547 3.2123-2.844 2.141-5.002 5.129-6.472 8.965-1.47 3.835-2.205 8.309-2.205 13.423zm75.508-61.3638v98.1818h-14.334v-98.1818zm42.921 99.6678c-7.255 0-13.504-1.55-18.745-4.65-5.21-3.132-9.237-7.527-12.081-13.184-2.813-5.689-4.219-12.352-4.219-19.991 0-7.542 1.406-14.19 4.219-19.943 2.844-5.7528 6.807-10.2432 11.889-13.4712 5.114-3.228 11.09-4.842 17.93-4.842 4.155 0 8.182.6872 12.081 2.0615s7.399 3.5316 10.499 6.4719 5.545 6.7598 7.335 11.4578c1.789 4.666 2.684 10.339 2.684 17.019v5.081h-58.535v-10.738h44.489c0-3.771-.767-7.111-2.301-10.02-1.535-2.94-3.692-5.257-6.472-6.951-2.749-1.694-5.977-2.5409-9.684-2.5409-4.027 0-7.543.9908-10.547 2.9719-2.973 1.95-5.274 4.507-6.904 7.671-1.598 3.132-2.397 6.536-2.397 10.211v8.39c0 4.922.863 9.108 2.589 12.56 1.758 3.452 4.203 6.088 7.335 7.91 3.132 1.79 6.792 2.685 10.978 2.685 2.717 0 5.194-.384 7.431-1.151 2.237-.799 4.171-1.981 5.801-3.547s2.876-3.5 3.739-5.801l13.567 2.445c-1.086 3.995-3.036 7.495-5.848 10.499-2.781 2.972-6.281 5.289-10.499 6.951-4.187 1.63-8.965 2.445-14.334 2.445zm70.875-1.486v-98.1818h14.813v42.6668h48.947v-42.6668h14.862v98.1818h-14.862v-42.811h-48.947v42.811zm92.294 0v-73.6364h14.334v73.6364zm7.239-84.9982c-2.493 0-4.634-.831-6.424-2.4929-1.758-1.6939-2.636-3.7074-2.636-6.0405 0-2.3651.878-4.3786 2.636-6.0405 1.79-1.6939 3.931-2.5408 6.424-2.5408s4.618.8469 6.376 2.5408c1.79 1.6619 2.685 3.6754 2.685 6.0405 0 2.3331-.895 4.3466-2.685 6.0405-1.758 1.6619-3.883 2.4929-6.376 2.4929zm74.809 29.3392-12.992 2.301c-.543-1.662-1.406-3.244-2.589-4.746-1.15-1.502-2.716-2.732-4.698-3.6911-1.982-.9588-4.458-1.4382-7.431-1.4382-4.059 0-7.447.9109-10.163 2.7323-2.717 1.79-4.075 4.107-4.075 6.952 0 2.461.911 4.442 2.733 5.944 1.821 1.502 4.762 2.733 8.821 3.692l11.697 2.684c6.776 1.566 11.825 3.979 15.149 7.239s4.986 7.495 4.986 12.704c0 4.411-1.278 8.342-3.835 11.794-2.525 3.42-6.057 6.104-10.595 8.054-4.506 1.949-9.732 2.924-15.677 2.924-8.245 0-14.973-1.758-20.182-5.273-5.21-3.548-8.406-8.582-9.589-15.101l13.855-2.11c.863 3.612 2.637 6.344 5.322 8.198 2.684 1.822 6.184 2.733 10.499 2.733 4.698 0 8.453-.975 11.266-2.925 2.812-1.981 4.218-4.394 4.218-7.239 0-2.301-.863-4.235-2.589-5.801-1.693-1.566-4.298-2.748-7.814-3.547l-12.464-2.733c-6.872-1.566-11.953-4.059-15.245-7.478-3.26-3.42-4.89-7.751-4.89-12.992 0-4.347 1.214-8.15 3.643-11.4101 2.429-3.26 5.785-5.8008 10.068-7.6225 4.282-1.8537 9.188-2.7806 14.717-2.7806 7.959 0 14.223 1.7259 18.793 5.1776 4.57 3.4197 7.591 8.006 9.061 13.7586zm43.472-17.9774v11.5057h-40.222v-11.5057zm-29.436-17.642h14.334v69.6574c0 2.78.416 4.874 1.247 6.28.831 1.374 1.901 2.317 3.212 2.829 1.342.479 2.796.719 4.362.719 1.151 0 2.158-.08 3.021-.24s1.534-.288 2.013-.384l2.589 11.842c-.831.319-2.014.639-3.548.959-1.534.351-3.451.543-5.753.575-3.771.064-7.286-.607-10.546-2.014-3.26-1.406-5.897-3.579-7.911-6.52-2.013-2.94-3.02-6.631-3.02-11.074zm66.859 92.7644c-6.903 0-12.928-1.582-18.073-4.746-5.146-3.164-9.141-7.59-11.985-13.279-2.845-5.689-4.267-12.337-4.267-19.944 0-7.638 1.422-14.318 4.267-20.039 2.844-5.7205 6.839-10.163 11.985-13.3271 5.145-3.164 11.17-4.7461 18.073-4.7461 6.904 0 12.928 1.5821 18.074 4.7461 5.145 3.1641 9.14 7.6066 11.985 13.3271 2.844 5.721 4.267 12.401 4.267 20.039 0 7.607-1.423 14.255-4.267 19.944-2.845 5.689-6.84 10.115-11.985 13.279-5.146 3.164-11.17 4.746-18.074 4.746zm.048-12.033c4.475 0 8.182-1.182 11.122-3.547 2.941-2.366 5.114-5.514 6.52-9.445 1.438-3.931 2.158-8.261 2.158-12.992 0-4.698-.72-9.012-2.158-12.943-1.406-3.964-3.579-7.144-6.52-9.541-2.94-2.3966-6.647-3.5951-11.122-3.5951-4.506 0-8.246 1.1985-11.218 3.5951-2.94 2.397-5.129 5.577-6.568 9.541-1.406 3.931-2.109 8.245-2.109 12.943 0 4.731.703 9.061 2.109 12.992 1.439 3.931 3.628 7.079 6.568 9.445 2.972 2.365 6.712 3.547 11.218 3.547zm43.528 10.547v-73.6364h13.859v11.6975h.76c1.34-3.9631 3.71-7.0792 7.1-9.3484 3.42-2.3011 7.28-3.4517 11.6-3.4517.89 0 1.95.032 3.16.0959 1.25.0639 2.22.1438 2.93.2397v13.7114c-.58-.16-1.6-.3361-3.07-.5278-1.47-.2237-2.94-.3356-4.41-.3356-3.39 0-6.41.7194-9.06 2.1574-2.62 1.406-4.7 3.372-6.23 5.897-1.54 2.492-2.31 5.337-2.31 8.533v44.968zm56.359 27.614c-2.14 0-4.09-.176-5.84-.528-1.76-.319-3.07-.671-3.94-1.054l3.46-11.746c2.62.703 4.95 1.007 7 .911 2.04-.096 3.85-.863 5.41-2.301 1.6-1.438 3.01-3.787 4.22-7.047l1.78-4.89-26.95-74.5954h15.34l18.65 57.1454h.77l18.65-57.1454h15.39l-30.35 83.4644c-1.41 3.835-3.2 7.079-5.37 9.732-2.17 2.684-4.76 4.698-7.76 6.04-3.01 1.342-6.49 2.014-10.46 2.014z"/><path d="m125.834 0c-53.624 0-97.2281 41.7025-98.3899 88.8196h-24.52673c-2.470546 0-3.818555 2.8708-2.234421 4.7586l33.233151 39.6028c1.7854 2.127 5.0875 2.071 6.798-.117l30.9344-39.5638c1.4889-1.9043.1261-4.6806-2.2976-4.6806h-25.7463c1.1589-38.2304 37.5301-72.7279 82.2294-72.7279 44.699 0 82.258 36.6717 82.258 81.9083 0 45.237-36.829 81.908-82.258 81.908-19.689 0-37.7587-6.89-51.9195-18.377-3.4365-2.788-8.4792-2.81-11.6148.313-3.1754 3.161-3.1841 8.334.2524 11.21 17.1098 14.319 39.1819 22.946 63.2819 22.946 54.354 0 98.418-43.877 98.418-98 0-54.1233-44.064-98-98.418-98z"/><path clip-rule="evenodd" d="m113.009 57.1044c0-4.2321 3.431-7.6629 7.663-7.6629s7.663 3.4308 7.663 7.6629v46.3156l34.611 21.078c3.608 2.197 4.713 6.925 2.453 10.494-2.205 3.48-6.792 4.552-10.311 2.409l-42.079-25.626z" fill-rule="evenodd"/></g></svg>