<svg fill="none" height="196" viewBox="0 0 225 196" width="225" xmlns="http://www.w3.org/2000/svg"><g fill="#000"><path d="m125.834 0c-53.624 0-97.2281 41.7025-98.3899 88.8196h-24.52673c-2.470546 0-3.818555 2.8708-2.234421 4.7586l33.233151 39.6028c1.7854 2.127 5.0875 2.071 6.798-.117l30.9344-39.5638c1.4889-1.9043.1261-4.6806-2.2976-4.6806h-25.7463c1.1589-38.2304 37.5301-72.7279 82.2294-72.7279 44.699 0 82.258 36.6717 82.258 81.9083 0 45.237-36.829 81.908-82.258 81.908-19.689 0-37.7587-6.89-51.9195-18.377-3.4365-2.788-8.4792-2.81-11.6148.313-3.1754 3.161-3.1841 8.334.2524 11.21 17.1098 14.319 39.1819 22.946 63.2819 22.946 54.354 0 98.418-43.877 98.418-98 0-54.1233-44.064-98-98.418-98z"/><path clip-rule="evenodd" d="m113.009 57.1044c0-4.2321 3.431-7.6629 7.663-7.6629s7.663 3.4308 7.663 7.6629v46.3156l34.611 21.078c3.608 2.197 4.713 6.925 2.453 10.494-2.205 3.48-6.792 4.552-10.311 2.409l-42.079-25.626z" fill-rule="evenodd"/></g></svg>