<svg fill="none" height="642" viewBox="0 0 642 642" width="642" xmlns="http://www.w3.org/2000/svg"><path d="m642 321c0 177.283-143.717 321-321 321s-321-143.717-321-321 143.717-321 321-321 321 143.717 321 321z" fill="#b0f4e6"/><g fill="#000"><path d="m374.765 446.855-.54-9.001 10.801-2.88c.24-.48.42-1.98.54-4.501.12-2.52.24-5.76.36-9.721.12-4.08.18-8.52.18-13.321l.18-26.822c0-4.921-.06-9.361-.18-13.321-.12-4.081-.24-7.381-.36-9.901-.12-2.521-.3-3.961-.54-4.321l-11.341-2.88.54-9.001h53.645 9.001c3.48-.12 6.901-.24 10.261-.36 3.36-.24 6.06-.42 8.101-.54l4.86 26.643-10.441 1.44-6.841-15.842c-1.44-.36-2.82-.6-4.14-.72-1.2-.12-2.52-.18-3.96-.18h-13.681c-2.041 0-4.081.12-6.121.36-1.92.12-3.54.3-4.86.54v2.16 3.241 6.12 10.441l.18 41.584c0 2.28.06 4.8.18 7.561.12 2.76.24 5.22.36 7.38.12 2.161.24 3.481.36 3.961l14.581 2.52-.54 9.361zm61.746-34.023-1.8-12.781c-1.44-.24-3.061-.42-4.861-.54-1.8-.121-3.6-.181-5.4-.181h-10.261c-2.28 0-4.321.12-6.121.361-1.68.12-3.18.24-4.5.36v-12.782c1.32.12 2.88.24 4.68.36 1.801.12 3.781.18 5.941.18h10.261c2.4 0 4.5-.06 6.3-.18 1.801-.12 3.121-.18 3.961-.18l1.8-11.881h10.261v37.264z"/><path d="m283.445 446.855-.54-9.001 10.801-2.88c.24-.48.42-1.98.54-4.501.12-2.52.24-5.76.36-9.721.12-4.08.18-8.52.18-13.321l.18-26.822c0-4.921-.06-9.361-.18-13.321-.12-4.081-.24-7.381-.36-9.901-.12-2.521-.3-3.961-.54-4.321l-11.341-2.88.54-9.001h53.645 9.001c3.48-.12 6.9-.24 10.261-.36 3.36-.24 6.06-.42 8.1-.54l4.861 26.643-10.441 1.44-6.841-15.842c-1.44-.36-2.82-.6-4.14-.72-1.2-.12-2.52-.18-3.961-.18h-13.681c-2.04 0-4.08.12-6.12.36-1.921.12-3.541.3-4.861.54v2.16 3.241 6.12 10.441l.18 41.584c0 2.28.06 4.8.18 7.561.12 2.76.24 5.22.36 7.38.12 2.161.24 3.481.36 3.961l14.582 2.52-.54 9.361zm61.746-34.023-1.801-12.781c-1.44-.24-3.06-.42-4.86-.54-1.8-.121-3.6-.181-5.401-.181h-10.26c-2.281 0-4.321.12-6.121.361-1.68.12-3.18.24-4.5.36v-12.782c1.32.12 2.88.24 4.68.36s3.78.18 5.941.18h10.26c2.401 0 4.501-.06 6.301-.18s3.12-.18 3.96-.18l1.801-11.881h10.26v37.264z"/><path d="m218.95 448.48c-11.041 0-20.882-2.28-29.523-6.84-8.521-4.561-15.241-10.801-20.162-18.722-4.8-8.041-7.201-17.222-7.201-27.543 0-10.801 2.401-20.401 7.201-28.802 4.921-8.401 11.701-15.002 20.342-19.802s18.422-7.201 29.343-7.201c10.801 0 20.281 2.281 28.442 6.841 8.161 4.44 14.521 10.621 19.082 18.542 4.68 7.92 7.021 17.161 7.021 27.722 0 9.241-1.681 17.342-5.041 24.302-3.36 6.961-7.801 12.781-13.321 17.462-5.401 4.68-11.281 8.221-17.642 10.621-6.36 2.28-12.541 3.42-18.541 3.42zm1.26-13.321c5.64 0 10.321-1.44 14.041-4.32 3.72-3.001 6.481-7.321 8.281-12.962 1.92-5.76 2.88-12.661 2.88-20.701 0-9.241-1.2-17.282-3.6-24.123-2.281-6.84-5.581-12.121-9.901-15.841-4.201-3.84-9.241-5.761-15.122-5.761-8.16 0-14.581 3.421-19.261 10.261-4.681 6.841-7.021 16.322-7.021 28.443 0 8.881 1.26 16.681 3.78 23.402 2.521 6.721 6.001 12.001 10.441 15.841 4.561 3.841 9.721 5.761 15.482 5.761z"/><path d="m381.783 323.339-11.161-9.541 80.827-100.989 11.341 9.36zm-.54-53.465c-5.64 0-10.681-1.2-15.121-3.601-4.441-2.4-7.921-5.7-10.441-9.9-2.52-4.321-3.781-9.241-3.781-14.762 0-5.28 1.321-10.021 3.961-14.221s6.18-7.561 10.621-10.081c4.56-2.52 9.481-3.78 14.761-3.78 5.761 0 10.861 1.2 15.301 3.6 4.441 2.4 7.921 5.7 10.441 9.901 2.641 4.2 3.961 9.061 3.961 14.581 0 5.401-1.38 10.201-4.141 14.401-2.64 4.201-6.18 7.561-10.621 10.081-4.44 2.521-9.42 3.781-14.941 3.781zm.18-15.122c3.48 0 6.421-1.2 8.821-3.6 2.52-2.4 3.78-5.64 3.78-9.721 0-4.08-1.26-7.26-3.78-9.541-2.4-2.28-5.341-3.42-8.821-3.42-3.36 0-6.241 1.2-8.641 3.6-2.28 2.281-3.42 5.401-3.42 9.361 0 4.081 1.14 7.321 3.42 9.721 2.4 2.4 5.281 3.6 8.641 3.6zm70.206 67.867c-5.64 0-10.741-1.201-15.301-3.601-4.44-2.4-7.921-5.7-10.441-9.901-2.52-4.2-3.78-9.061-3.78-14.581 0-5.281 1.32-10.021 3.96-14.221 2.76-4.321 6.361-7.681 10.801-10.081 4.56-2.52 9.481-3.781 14.761-3.781 5.761 0 10.861 1.201 15.302 3.601 4.44 2.28 7.92 5.52 10.441 9.721 2.52 4.2 3.78 9.12 3.78 14.761 0 5.28-1.32 10.081-3.96 14.401-2.641 4.201-6.241 7.561-10.801 10.081-4.441 2.4-9.361 3.601-14.762 3.601zm.18-15.122c3.481 0 6.421-1.14 8.821-3.42 2.52-2.4 3.781-5.641 3.781-9.721s-1.261-7.261-3.781-9.541c-2.4-2.4-5.34-3.6-8.821-3.6-3.48 0-6.36 1.2-8.64 3.6-2.281 2.4-3.421 5.581-3.421 9.541 0 4.08 1.14 7.321 3.421 9.721 2.28 2.28 5.16 3.42 8.64 3.42z"/><path d="m295.507 322.621c-9.12 0-17.341-2.22-24.662-6.661-7.201-4.44-12.901-10.621-17.101-18.542-4.081-8.04-6.121-17.341-6.121-27.902 0-11.281 2.04-21.062 6.121-29.343 4.2-8.28 9.96-14.761 17.281-19.441 7.321-4.681 15.602-7.021 24.842-7.021 8.881 0 16.742 2.16 23.583 6.481 6.84 4.32 12.181 10.5 16.021 18.541 3.96 7.921 5.941 17.282 5.941 28.083 0 10.441-2.041 19.922-6.121 28.442-4.08 8.401-9.601 15.062-16.562 19.982-6.96 4.921-14.701 7.381-23.222 7.381zm1.801-12.961c3.84 0 7.08-1.321 9.72-3.961 2.761-2.76 4.801-6.96 6.121-12.601 1.44-5.64 2.16-12.901 2.16-21.782 0-14.041-1.98-25.202-5.94-33.483-3.961-8.401-9.061-12.601-15.302-12.601-5.88 0-10.681 3.3-14.401 9.901-3.6 6.6-5.401 16.321-5.401 29.163 0 9 1.021 16.921 3.061 23.762 2.04 6.84 4.8 12.181 8.28 16.021 3.481 3.72 7.381 5.581 11.702 5.581z"/><path d="m197.708 266.456 3.78-3.601c10.921.12 19.382 2.581 25.382 7.381 6.001 4.68 9.001 11.041 9.001 19.082 0 5.52-1.86 10.861-5.58 16.021-3.601 5.041-8.821 9.181-15.662 12.421-6.72 3.241-14.821 4.861-24.302 4.861-5.4 0-10.261-.66-14.581-1.98-4.201-1.441-7.561-3.361-10.081-5.761-2.4-2.52-3.601-5.28-3.601-8.281 0-2.76.841-4.98 2.521-6.66 1.8-1.8 4.02-2.701 6.66-2.701 2.28 0 4.201.361 5.761 1.081 1.68.72 3.66 2.1 5.94 4.14l12.601 11.161-6.48-3.06c4.2 1.08 7.981.96 11.341-.36s6-3.541 7.921-6.661c2.04-3.24 3.06-7.021 3.06-11.341 0-5.881-1.92-10.441-5.761-13.681-3.84-3.361-9.06-5.041-15.661-5.041-1.56 0-3.06.06-4.5.18-1.441.12-2.761.24-3.961.36l-1.26-10.621c7.561-.84 13.561-3 18.002-6.48 4.44-3.48 6.66-7.741 6.66-12.781 0-3.961-1.38-7.081-4.14-9.361-2.64-2.28-6.241-3.42-10.801-3.42-3.96 0-7.681.9-11.161 2.7s-6.241 4.32-8.281 7.56l-7.74-5.58c3.24-6.721 8.1-12.121 14.581-16.202 6.48-4.08 13.741-6.12 21.782-6.12 9.361 0 16.741 2.34 22.142 7.021 5.4 4.56 8.101 10.2 8.101 16.921 0 7.321-3.001 13.381-9.001 18.182-5.881 4.68-13.441 8.22-22.682 10.621z"/><path d="m191.503 519.409-7.666-3.936c.274-.856.368-1.768.282-2.737-.072-.96-.398-1.911-.979-2.854-.581-.942-1.478-1.814-2.691-2.614-1.633-1.077-3.238-1.628-4.818-1.654-1.565-.016-2.711.544-3.44 1.68-.653.959-.818 1.979-.496 3.062.337 1.093 1.221 2.392 2.654 3.897l4.877 4.958c2.702 2.756 4.333 5.376 4.892 7.859.574 2.493.082 4.936-1.476 7.33-1.396 2.085-3.229 3.529-5.5 4.332-2.247.798-4.735.94-7.464.426-2.729-.515-5.48-1.686-8.254-3.516-4.074-2.687-6.791-5.702-8.152-9.045-1.351-3.358-1.255-6.726.289-10.103l8.135 4.308c-.644 1.731-.655 3.351-.034 4.86.622 1.509 1.836 2.859 3.642 4.05 1.864 1.229 3.611 1.832 5.243 1.81 1.646-.013 2.841-.583 3.584-1.71.629-.953.78-1.983.453-3.091-.313-1.097-1.125-2.317-2.437-3.659l-4.892-4.937c-2.754-2.77-4.378-5.447-4.871-8.032-.483-2.599.083-5.107 1.698-7.525 1.339-2.061 3.067-3.471 5.185-4.23 2.141-.764 4.495-.891 7.061-.381 2.589.506 5.213 1.635 7.871 3.388 3.901 2.573 6.423 5.428 7.566 8.566 1.158 3.148 1.071 6.314-.262 9.498z"/><path d="m215.127 544.727 9.698-20.969 8.529 3.945-16.738 36.189-8.27-3.825 2.975-6.432-.377-.174c-1.754 1.648-3.863 2.684-6.328 3.107-2.449.431-5.032.018-7.75-1.239-2.371-1.097-4.225-2.593-5.56-4.488-1.312-1.903-2.01-4.104-2.094-6.603-.077-2.514.553-5.216 1.89-8.106l10.658-23.042 8.529 3.945-10.048 21.722c-1.06 2.294-1.275 4.406-.643 6.338s1.969 3.37 4.01 4.315c1.257.581 2.616.838 4.077.77 1.462-.068 2.849-.532 4.162-1.393 1.337-.869 2.43-2.222 3.28-4.06z"/><path d="m223.388 582.339 15.645-52.545 8.857 2.638-1.881 6.319.522.156c.741-.791 1.69-1.583 2.847-2.376 1.162-.809 2.576-1.373 4.241-1.689 1.67-.334 3.625-.167 5.864.5 2.952.879 5.389 2.426 7.312 4.642 1.944 2.204 3.175 4.981 3.694 8.332.541 3.338.179 7.131-1.085 11.377-1.25 4.196-3 7.557-5.251 10.083-2.25 2.526-4.791 4.207-7.623 5.043-2.831.836-5.747.808-8.749-.086-2.19-.652-3.897-1.558-5.123-2.717-1.225-1.16-2.125-2.385-2.698-3.675-.551-1.301-.929-2.488-1.133-3.56l-.373-.111-6.06 20.351zm18.788-30.808c-.736 2.472-1.032 4.74-.888 6.805.16 2.07.747 3.825 1.763 5.265 1.037 1.428 2.51 2.426 4.417 2.994 1.99.593 3.815.559 5.475-.103 1.664-.678 3.113-1.844 4.346-3.5 1.255-1.666 2.238-3.694 2.949-6.082.706-2.372.994-4.58.862-6.623-.132-2.044-.714-3.788-1.746-5.233-1.033-1.445-2.552-2.466-4.559-3.064-1.924-.573-3.709-.553-5.353.058-1.645.612-3.087 1.726-4.327 3.343-1.223 1.622-2.203 3.669-2.939 6.14z"/><path d="m290.996 584.188c-3.952-.607-7.238-1.952-9.859-4.036-2.602-2.098-4.44-4.779-5.514-8.043-1.072-3.281-1.291-6.983-.657-11.105.622-4.054 1.939-7.494 3.949-10.319 2.029-2.84 4.569-4.901 7.62-6.183 3.054-1.299 6.462-1.66 10.225-1.081 2.429.373 4.661 1.118 6.695 2.236 2.054 1.104 3.786 2.596 5.196 4.475 1.426 1.883 2.425 4.155 2.997 6.817.574 2.644.596 5.694.065 9.149l-.438 2.848-32.303-4.963.962-6.26 23.4 3.595c.256-1.782.114-3.423-.425-4.924-.538-1.518-1.42-2.783-2.648-3.795-1.21-1.009-2.705-1.65-4.484-1.923-1.899-.292-3.637-.086-5.216.617-1.576.685-2.881 1.711-3.913 3.075-1.013 1.35-1.663 2.905-1.951 4.664l-.84 5.465c-.352 2.292-.235 4.324.351 6.094.588 1.754 1.568 3.183 2.939 4.287 1.374 1.086 3.07 1.784 5.089 2.094 1.351.208 2.603.208 3.755 0 1.155-.225 2.193-.653 3.112-1.282.92-.629 1.67-1.468 2.252-2.516l8.522 2.307c-.899 2.208-2.25 4.049-4.053 5.523-1.782 1.459-3.934 2.477-6.457 3.052-2.519.559-5.31.603-8.371.132z"/><path d="m320.607 586.445-1.894-39.828 9.101-.432.315 6.637.415-.019c.617-2.334 1.777-4.165 3.481-5.493 1.721-1.347 3.722-2.074 6.004-2.183.518-.025 1.099-.026 1.741-.005.658.004 1.206.038 1.642.104l.41 8.634c-.404-.119-1.04-.21-1.91-.273-.852-.08-1.676-.102-2.472-.064-1.711.081-3.232.526-4.562 1.335-1.314.79-2.329 1.851-3.045 3.185-.716 1.333-1.034 2.847-.954 4.541l1.114 23.414z"/><path d="m382.965 579.226c-3.052.706-5.965.554-8.739-.457-2.773-1.01-5.205-2.846-7.294-5.507-2.09-2.661-3.628-6.124-4.614-10.39-.998-4.316-1.132-8.122-.402-11.417.743-3.315 2.153-6.013 4.23-8.092 2.073-2.095 4.602-3.488 7.586-4.178 2.276-.527 4.238-.572 5.884-.135 1.642.419 3.018 1.069 4.127 1.949 1.106.864 2.004 1.713 2.694 2.548l.38-.088-4.48-19.373 9.181-2.123 11.977 51.797-9.004 2.082-1.415-6.121-.556.129c-.254 1.053-.705 2.214-1.353 3.483-.652 1.252-1.626 2.419-2.921 3.5s-3.056 1.879-5.281 2.393zm.817-8.102c1.939-.448 3.471-1.353 4.595-2.714 1.12-1.378 1.815-3.093 2.087-5.145.271-2.053.117-4.335-.464-6.847s-1.44-4.614-2.577-6.305c-1.12-1.695-2.482-2.898-4.086-3.611-1.586-.717-3.366-.847-5.339-.391-2.04.472-3.62 1.397-4.74 2.775s-1.81 3.083-2.068 5.114c-.259 2.032-.109 4.253.448 6.664.562 2.428 1.409 4.514 2.54 6.26 1.145 1.725 2.527 2.977 4.146 3.757 1.632.759 3.452.907 5.458.443z"/><path d="m430.057 565.15c-3.739 1.416-7.261 1.861-10.569 1.337-3.297-.547-6.216-1.977-8.757-4.29-2.548-2.329-4.56-5.444-6.036-9.345-1.453-3.835-1.999-7.477-1.639-10.926.37-3.471 1.567-6.515 3.593-9.132 2.019-2.633 4.809-4.624 8.369-5.972 2.299-.87 4.608-1.319 6.929-1.347 2.331-.05 4.573.397 6.725 1.34 2.168.937 4.156 2.424 5.963 4.46 1.801 2.019 3.32 4.664 4.558 7.933l1.02 2.695-30.564 11.572-2.243-5.924 22.141-8.382c-.654-1.677-1.585-3.036-2.793-4.078-1.215-1.057-2.605-1.724-4.172-2.001-1.55-.283-3.167-.105-4.85.532-1.797.68-3.209 1.714-4.238 3.103-1.035 1.373-1.666 2.907-1.893 4.603-.218 1.674-.019 3.347.596 5.02l1.957 5.171c.822 2.169 1.923 3.88 3.304 5.133 1.375 1.238 2.931 1.999 4.668 2.286 1.731.27 3.551.043 5.46-.68 1.279-.484 2.369-1.1 3.27-1.848.895-.765 1.588-1.647 2.079-2.647s.731-2.1.722-3.299l8.554-2.184c.304 2.365.033 4.632-.811 6.802-.833 2.148-2.207 4.092-4.119 5.834-1.919 1.726-4.327 3.137-7.224 4.234z"/><path d="m467.032 548.263c-2.207 1.23-4.414 1.945-6.621 2.145-2.2.176-4.248-.228-6.143-1.213-1.881-.992-3.457-2.63-4.729-4.912-1.095-1.965-1.638-3.793-1.629-5.482.01-1.689.427-3.269 1.252-4.739s1.914-2.84 3.267-4.109c1.36-1.293 2.836-2.502 4.428-3.627 1.923-1.349 3.473-2.46 4.65-3.334 1.168-.889 1.939-1.675 2.311-2.358.379-.707.349-1.453-.089-2.239l-.075-.136c-.952-1.708-2.196-2.749-3.731-3.121-1.535-.373-3.255-.029-5.16 1.033-2.01 1.12-3.361 2.447-4.051 3.981-.676 1.526-.885 2.999-.627 4.421l-8.271 3.183c-.575-2.454-.563-4.778.036-6.974.59-2.211 1.693-4.232 3.308-6.063 1.606-1.846 3.626-3.448 6.059-4.804 1.678-.935 3.458-1.67 5.34-2.203 1.882-.534 3.763-.731 5.644-.59 1.873.125 3.655.727 5.346 1.805 1.705 1.071 3.203 2.762 4.492 5.075l12.99 23.31-7.89 4.397-2.667-4.784-.272.152c.04 1.245-.157 2.544-.592 3.896-.429 1.328-1.18 2.629-2.254 3.901-1.067 1.248-2.508 2.378-4.322 3.389zm-1.23-7.219c1.648-.919 2.895-2.04 3.742-3.364.839-1.339 1.28-2.734 1.323-4.184.059-1.459-.27-2.831-.986-4.116l-2.287-4.104c-.139.354-.468.795-.987 1.322-.504.518-1.095 1.056-1.775 1.614-.68.557-1.361 1.095-2.043 1.613-.682.519-1.274.968-1.776 1.347-1.131.848-2.076 1.731-2.833 2.648-.756.917-1.225 1.872-1.405 2.864-.189.977.012 1.994.601 3.052.843 1.512 2.031 2.346 3.564 2.502s3.154-.242 4.862-1.194z"/><path d="m470.09 482.508 30.805 43.328-7.658 5.445-30.805-43.328z"/><path d="m157.461 169.487-31.461-42.854 16.405-12.044c3.097-2.273 6.029-3.675 8.797-4.204 2.771-.553 5.28-.366 7.528.56 2.261.916 4.17 2.435 5.727 4.555 1.28 1.744 2.041 3.482 2.283 5.215.231 1.72.064 3.378-.503 4.974-.567 1.597-1.425 3.075-2.574 4.434l.307.419c1.582-1.033 3.383-1.636 5.403-1.809 2.023-.197 4.045.143 6.064 1.022 2.019.88 3.828 2.407 5.426 4.583 1.628 2.218 2.555 4.608 2.782 7.168.216 2.546-.383 5.122-1.798 7.728s-3.761 5.112-7.039 7.518zm3.001-12.186 8.349-6.129c2.818-2.069 4.453-4.096 4.906-6.082.457-2.009.061-3.865-1.189-5.567-.932-1.27-2.085-2.183-3.461-2.741-1.385-.571-2.872-.725-4.46-.461-1.598.251-3.2.965-4.804 2.142l-8.558 6.283zm-13.319-18.142 7.68-5.637c1.339-.984 2.366-2.114 3.082-3.39.706-1.291 1.032-2.615.981-3.973-.049-1.381-.534-2.7-1.455-3.955-1.219-1.66-2.809-2.597-4.769-2.811-1.946-.224-4.063.503-6.351 2.183l-7.847 5.761z"/><path d="m176.26 93.4243 25.754 46.5087-8.221 4.552-25.754-46.5084z"/><path d="m217.364 133.459c-2.329.979-4.601 1.446-6.816 1.401-2.206-.068-4.197-.695-5.973-1.882-1.759-1.194-3.146-2.995-4.158-5.404-.872-2.074-1.21-3.95-1.014-5.628.195-1.678.784-3.202 1.766-4.573.982-1.37 2.216-2.611 3.701-3.723 1.494-1.135 3.094-2.174 4.8-3.117 2.06-1.128 3.723-2.062 4.989-2.801 1.26-.755 2.112-1.451 2.558-2.089.454-.66.507-1.405.158-2.235l-.06-.143c-.758-1.803-1.879-2.974-3.364-3.5138s-3.232-.3872-5.242.4578c-2.122.892-3.61 2.062-4.466 3.511-.839 1.441-1.209 2.883-1.11 4.324l-8.572 2.252c-.3-2.502-.032-4.811.805-6.928.831-2.132 2.149-4.0195 3.956-5.6613 1.8-1.6577 3.984-3.0264 6.553-4.1062 1.77-.7444 3.62-1.2781 5.55-1.601 1.929-.3229 3.821-.3109 5.675.036 1.847.331 3.552 1.1256 5.113 2.384 1.578 1.2517 2.879 3.098 3.905 5.5388l10.342 24.5997-8.328 3.501-2.123-5.049-.287.121c-.097 1.242-.436 2.511-1.018 3.807-.572 1.273-1.463 2.482-2.67 3.628-1.199 1.124-2.755 2.088-4.67 2.893zm-.426-7.311c1.739-.731 3.102-1.708 4.09-2.931.981-1.238 1.573-2.576 1.777-4.013.219-1.444.043-2.843-.527-4.2l-1.821-4.331c-.177.338-.552.739-1.126 1.206-.558.459-1.205.929-1.943 1.408-.737.479-1.473.938-2.208 1.378-.734.441-1.372.822-1.913 1.143-1.218.718-2.254 1.492-3.108 2.32-.853.828-1.424 1.725-1.712 2.691-.296.95-.209 1.983.261 3.1.671 1.596 1.759 2.555 3.266 2.879 1.506.324 3.161.107 4.964-.65z"/><path d="m257.532 119.746c-3.853.997-7.381 1.007-10.583.031-3.186-.981-5.91-2.77-8.173-5.366-2.25-2.618-3.881-5.878-4.891-9.782-1.015-3.92-1.156-7.5748-.424-10.9639.727-3.4059 2.247-6.3021 4.561-8.6886 2.327-2.4075 5.375-4.0991 9.144-5.0747 3.133-.8109 6.056-.9505 8.767-.4189 2.725.5105 5.078 1.6264 7.061 3.3477 1.978 1.7046 3.428 3.9214 4.349 6.6504l-8.695 2.2505c-.833-1.7686-2.072-3.1015-3.717-3.9988-1.632-.9183-3.545-1.0934-5.74-.5254-1.859.4813-3.363 1.4067-4.51 2.7762-1.151 1.3526-1.88 3.0607-2.186 5.1242-.29 2.0591-.098 4.387.574 6.9843.681 2.63 1.651 4.792 2.912 6.486 1.256 1.677 2.712 2.846 4.367 3.508 1.667.641 3.448.717 5.341.227 1.34-.347 2.473-.909 3.398-1.684.938-.797 1.642-1.775 2.111-2.933.468-1.158.657-2.467.565-3.927l8.695-2.25c.489 2.787.312 5.416-.533 7.887-.848 2.454-2.316 4.586-4.404 6.395-2.093 1.793-4.755 3.108-7.989 3.945z"/><path d="m280.102 101.6-1.383-11.2593 1.495-.1801 12.31-17.6155 10.902-1.3135-15.152 21.5921-1.933.2329zm-7.008 13.447-6.36-52.7814 9.33-1.1241 6.359 52.7815zm24.844-2.994-15.056-16.4617 5.496-7.3295 20.719 22.4472z"/><path d="m336.112 110.84-7.895-54.672 10.268 1.3597 4.367 39.9868.489.0647 15.267-37.3867 9.342 1.237 5.033 40.1015.463.061 14.628-37.4976 10.267 1.3597-21.853 50.7329-9.418-1.247-5.654-38.3767-.412-.0545-15.474 35.5792z"/><path d="m404.691 125.805c-3.779-1.304-6.772-3.215-8.979-5.733-2.184-2.53-3.514-5.496-3.987-8.9-.468-3.419-.022-7.101 1.338-11.044 1.337-3.8768 3.247-7.0257 5.729-9.4463 2.505-2.4312 5.372-4.005 8.603-4.7212 3.237-.7326 6.655-.4782 10.254.7632 2.323.8013 4.386 1.9337 6.187 3.3973 1.824 1.4528 3.261 3.23 4.312 5.3315 1.067 2.1072 1.644 4.5212 1.731 7.2425.092 2.704-.431 5.709-1.571 9.013l-.94 2.724-30.895-10.656 2.065-5.9877 22.38 7.7197c.571-1.707.725-3.348.462-4.921-.257-1.59-.9-2.9922-1.927-4.2069-1.011-1.209-2.367-2.107-4.068-2.6938-1.816-.6264-3.564-.7348-5.243-.3254-1.673.3931-3.139 1.1687-4.399 2.3268-1.238 1.1474-2.156 2.5608-2.753 4.2402l-1.803 5.2271c-.756 2.192-1.004 4.212-.744 6.059.265 1.83.974 3.411 2.126 4.742 1.157 1.315 2.701 2.305 4.632 2.971 1.292.446 2.524.669 3.695.67 1.177-.015 2.274-.25 3.291-.704 1.017-.455 1.906-1.146 2.665-2.074l7.973 3.793c-1.28 2.012-2.938 3.582-4.975 4.71-2.014 1.117-4.314 1.734-6.898 1.849-2.579.099-5.332-.356-8.261-1.366z"/><path d="m439.666 141.273c-3.519-1.896-6.165-4.265-7.936-7.106-1.748-2.849-2.582-5.991-2.5-9.426.09-3.451 1.124-7.012 3.102-10.683 1.945-3.611 4.338-6.411 7.178-8.399 2.864-1.996 5.948-3.086 9.252-3.272 3.313-.201 6.645.602 9.997 2.408 2.163 1.165 4.016 2.615 5.558 4.35 1.565 1.728 2.697 3.714 3.395 5.958.714 2.251.893 4.727.54 7.426-.345 2.684-1.347 5.565-3.005 8.642l-1.366 2.537-28.772-15.501 3.004-5.576 20.842 11.229c.838-1.593 1.255-3.187 1.249-4.782.003-1.611-.405-3.098-1.223-4.462-.802-1.357-1.996-2.462-3.58-3.315-1.691-.911-3.398-1.3-5.121-1.167-1.715.118-3.288.647-4.718 1.586-1.406.933-2.54 2.18-3.401 3.741l-2.622 4.868c-1.1 2.041-1.671 3.994-1.712 5.859-.033 1.85.411 3.524 1.333 5.023.93 1.484 2.294 2.711 4.092 3.679 1.204.649 2.383 1.068 3.539 1.258 1.164.175 2.284.12 3.362-.164 1.077-.285 2.065-.824 2.964-1.617l7.257 5.03c-1.588 1.779-3.477 3.06-5.669 3.845-2.169.778-4.538 1.015-7.107.712-2.561-.318-5.205-1.212-7.932-2.681z"/><path d="m470.98 145.225 6.921-8.988 1.191.922 21.134-3.899 8.684 6.719-25.949 4.735-1.54-1.191zm-14.432 4.654 32.532-42.047 7.432 5.75-32.532 42.047zm19.792 15.313.838-22.293 9.06-1.36-1.008 30.531z"/></g></svg>