<?xml version="1.0" encoding="UTF-8"?>
<svg id="Layer_1" xmlns="http://www.w3.org/2000/svg" viewBox="0 0 230.26 55.07">
  <defs>
    <style>
      .cls-1 {
        fill: #cc1e1f;
      }
    </style>
  </defs>
  <path class="cls-1" d="M13.77,20.99c5.58,0,9.25.89,11,2.68s2.63,5.55,2.63,11.3c0,6.41-.85,10.61-2.54,12.61-1.69,2-5.26,3-10.71,3-5.91,0-9.74-.93-11.48-2.78-1.74-1.85-2.63-5.94-2.67-12.26,0-6.07.86-10.02,2.57-11.83s5.45-2.72,11.2-2.72ZM13.71,26.47c-2.89,0-4.72.52-5.51,1.55s-1.18,3.47-1.18,7.28c0,4.36.37,7.08,1.12,8.17.75,1.09,2.61,1.63,5.6,1.63s4.7-.57,5.46-1.72,1.13-3.91,1.13-8.29c0-3.69-.39-6.05-1.18-7.08-.75-1.03-2.6-1.54-5.44-1.54Z"/>
  <path class="cls-1" d="M56.64,8.95v41.3h-6.75l.24-4.66h-.12c-1.33,3.33-4.28,5-8.83,5s-7.58-1.04-9.09-3.13c-1.48-2.09-2.22-6.33-2.23-12.72,0-5.17.8-8.76,2.39-10.76,1.6-2,4.43-3,8.51-3,4.72,0,7.66,1.49,8.83,4.48h.12V8.95h6.93ZM43.06,26.47c-2.59,0-4.26.55-5,1.65s-1.15,3.46-1.15,7.09c0,4.19.39,6.9,1.15,8.11s2.45,1.83,5.12,1.83,4.56-.59,5.34-1.78,1.16-3.93,1.16-8.23c0-3.55-.43-5.88-1.28-7-.85-1.12-2.63-1.68-5.34-1.67Z"/>
  <path class="cls-1" d="M79.07,40.99h7v1.16c0,5.65-4.23,8.48-12.7,8.47-5.75,0-9.51-.98-11.29-2.94-1.78-1.96-2.67-6.12-2.68-12.47,0-5.63.93-9.42,2.78-11.35s5.47-2.9,10.86-2.9,8.63.94,10.38,2.83c1.75,1.89,2.63,5.59,2.63,11.12v2.12h-19.59c0,.64-.06,1.06-.06,1.27,0,2.84.44,4.74,1.31,5.68s2.63,1.43,5.25,1.43,4.2-.28,5-.84,1.11-1.75,1.11-3.58ZM79.14,32.79v-1.15c0-2.3-.4-3.79-1.2-4.48s-2.53-1-5.19-1-4.26.42-5,1.24-1.16,2.64-1.16,5.42l12.55-.03Z"/>
  <path class="cls-1" d="M88.97,21.32h6.93l-.42,4.06h.15c1.47-2.92,4.53-4.7,7.8-4.54,5.09,0,7.64,3.21,7.63,9.62v2h-6.54c.08-.79.12-1.3.12-1.55,0-3.08-1.2-4.62-3.6-4.62-3.42,0-5.14,2.28-5.14,6.86v17h-6.93v-28.83Z"/>
  <path class="cls-1" d="M119.16,8.95v41.3h-6.93V8.95h6.93Z"/>
  <path class="cls-1" d="M173.93,22.79c-.08,5.33-1.59,10.54-4.36,15.09-2.78,4.89-6.63,9.09-11.26,12.27-4.39,3.11-9.62,4.83-15,4.91-6,.11-11.77-2.3-15.91-6.65-4.26-4.22-6.61-10-6.51-16,.08-5.34,1.59-10.56,4.36-15.13,2.76-4.89,6.58-9.08,11.19-12.28C140.8,1.83,146.04.08,151.44,0c6-.09,11.77,2.33,15.91,6.68,4.31,4.24,6.69,10.07,6.58,16.11ZM165.93,26.63c.07-4.85-1.46-9.59-4.35-13.48-3.15-4.28-7.21-6.42-12.16-6.42-3.44.11-6.78,1.14-9.68,3-7.56,4.47-11.34,10.99-11.34,19.56-.09,4.85,1.42,9.6,4.3,13.51,3.15,4.33,7.21,6.49,12.16,6.49,3.42-.1,6.75-1.14,9.62-3,7.65-4.5,11.47-11.05,11.46-19.66h0ZM158.93,31.08c.15,3.7-1.47,7.25-4.36,9.56-2.96,2.21-6.59,3.34-10.28,3.2-2.16.09-4.3-.43-6.17-1.51-1.92-1.04-3.08-3.08-3-5.26,0-2.59,1.29-5.73,3.87-9.41,2.32-3.54,6.32-5.63,10.55-5.51,1.47.01,2.93.18,4.36.48-.07-1.1-.5-2.15-1.21-3-.85-.67-1.92-.98-3-.88-1.68.07-3.36.29-5,.67-1.49.35-3.01.57-4.54.66-.83-.03-1.6-.45-2.09-1.12-.58-.64-.91-1.47-.93-2.33,0-.84.72-1.47,2.18-1.87,3.69-1.04,7.49-1.58,11.32-1.61,2.38,0,4,.34,4.9,1,1.33,1.05,2.22,3.15,2.66,6.3.16,2.38.35,4.76.55,7.14.12,1.64.18,2.8.18,3.49h0ZM149.19,27.32c-1.41,0-3.3.85-5.69,2.55-2.5,1.77-3.75,3.32-3.75,4.65,0,1.13.72,2.08,2.18,2.85,1.12.65,2.39.99,3.69,1,1.84,0,3.63-.58,5.14-1.64,1.64-.87,2.68-2.56,2.72-4.41-.05-1.23-.52-2.4-1.33-3.33-.67-1-1.77-1.62-2.97-1.67h0Z"/>
  <path class="cls-1" d="M175.4,21.32h6.87l-.29,4.83h.16c1.33-3.48,4.36-5.22,9.07-5.23,6.84,0,10.26,3.19,10.26,9.56v19.77h-6.93v-18.52l-.15-2c-.32-2.15-2-3.23-5.08-3.23-4.67,0-7,2.21-7,6.62v17.13h-6.91v-28.93Z"/>
  <path class="cls-1" d="M230.26,8.95v41.3h-6.74l.24-4.66h-.12c-1.33,3.33-4.28,5-8.84,5s-7.59-1.04-9.09-3.13c-1.48-2.09-2.22-6.33-2.22-12.72,0-5.17.8-8.76,2.39-10.76,1.59-2,4.43-3,8.5-3,4.72,0,7.66,1.49,8.83,4.48h.12V8.95h6.93ZM216.68,26.47c-2.58,0-4.25.55-5,1.65-.76,1.09-1.14,3.46-1.14,7.09,0,4.19.38,6.9,1.14,8.11s2.46,1.83,5.12,1.83,4.56-.59,5.34-1.78,1.16-3.93,1.16-8.23c0-3.55-.43-5.88-1.28-7-.85-1.12-2.63-1.68-5.34-1.67Z"/>
</svg>