<svg width="48" height="48" xmlns="http://www.w3.org/2000/svg" viewBox="0 0 48 48">
 <g>
  <path stroke="null" id="svg_1" fill="none" d="m0,0l48,0l0,48l-48,0l0,-48z"/>
  <path fill="#3f9349" id="svg_2" d="m25.99,6c-9.949999,0 -17.99,8.06 -17.99,18l-6,0l7.79,7.790001l0.14,0.290001l8.07,-8.080002l-6,0c0,-7.73 6.27,-14 14,-14s14,6.27 14,14s-6.27,14 -14,14c-3.870001,0 -7.360001,-1.580002 -9.889999,-4.110001l-2.830001,2.830002c3.250001,3.259998 7.740001,5.279999 12.71,5.279999c9.949999,0 18.01,-8.060001 18.01,-18s-8.060001,-18 -18.01,-18zm-1.99,10l0,10l8.560001,5.08l1.439999,-2.43l-7,-4.15l0,-8.5l-3,0z" opacity="0.9"/>
 </g>
</svg>