<svg fill="none" height="256" viewBox="0 0 256 256" width="256" xmlns="http://www.w3.org/2000/svg"><path d="m0 0h256v256h-256z" fill="#b0f4e6"/><g fill="#000"><path d="m159.017 61.2068c-38.231-15.7148-81.5796 1.337-96.2619 34.7001l-12.0938-4.9712c-1.7613-.724-3.5665.9344-2.9921 2.749l6.6564 35.8513c.6474 2.045 3.0182 2.972 4.881 1.908l28.295-21.451c1.6215-.926 1.4662-3.311-.2617-4.022l-12.9633-5.328c12.0672-27.0073 48.1414-41.0249 80.0084-27.9256 31.868 13.0994 47.863 50.3386 34.562 82.6966s-50.34 47.797-82.729 34.484c-14.0364-5.77-24.8935-15.994-31.6117-28.361-1.6304-3.001-5.219-4.495-8.3725-3.18-3.1936 1.331-4.7207 5.028-3.1163 8.092 7.988 15.257 21.1875 27.897 38.3695 34.959 38.751 15.929 83.068-2.543 98.982-41.258s-2.6-83.0142-41.352-98.9432z"/><path clip-rule="evenodd" d="m121.254 102.148c0-3.019 2.39-5.4664 5.338-5.4664s5.337 2.4474 5.337 5.4664v33.038l24.108 15.036c2.513 1.568 3.283 4.941 1.708 7.486-1.536 2.483-4.73 3.248-7.181 1.719l-29.31-18.28z" fill-rule="evenodd"/></g></svg>