<?xml version="1.0" encoding="UTF-8"?>
<svg width="131px" height="131px" viewBox="0 0 131 131" version="1.1" xmlns="http://www.w3.org/2000/svg" xmlns:xlink="http://www.w3.org/1999/xlink">
    <title>Group</title>
    <g id="Page-1" stroke="none" stroke-width="1" fill="none" fill-rule="evenodd">
        <g id="154901-OV13M6-918" transform="translate(-324.000000, -325.000000)">
            <g id="Group" transform="translate(324.121000, 325.526000)">
                <path d="M129.526,64.763 C129.526,100.531 100.531,129.526 64.763,129.526 C28.995,129.526 2.84217094e-14,100.531 2.84217094e-14,64.763 C2.84217094e-14,28.995 28.995,-1.42108547e-14 64.763,-1.42108547e-14 C100.531,-1.42108547e-14 129.526,28.995 129.526,64.763" id="Fill-4" fill="#B4BDD3"></path>
                <path d="M89.956,54.155 C89.956,72.142 78.677,86.723 64.763,86.723 C50.849,86.723 39.569,72.142 39.569,54.155 C39.569,36.169 50.849,21.588 64.763,21.588 C78.677,21.588 89.956,36.169 89.956,54.155" id="Fill-5" fill="#FFFFFE"></path>
                <path d="M64.763,91.376 C41.56,91.376 22.041,98.281 16.266,107.664 C28.131,121.067 45.455,129.526 64.763,129.526 C84.071,129.526 101.394,121.067 113.26,107.664 C107.485,98.281 87.966,91.376 64.763,91.376" id="Fill-6" fill="#FFFFFE"></path>
                <path d="M66.513,105.892 L63.012,105.892 C57.719,105.892 53.388,101.56 53.388,96.267 L53.388,74.388 C53.388,69.094 57.719,64.763 63.012,64.763 L66.513,64.763 C71.807,64.763 76.138,69.094 76.138,74.388 L76.138,96.267 C76.138,101.56 71.807,105.892 66.513,105.892" id="Fill-7" fill="#FFFFFE"></path>
                <path d="M43.434,57.134 C44.327,61.515 43.214,65.441 40.948,65.903 C38.682,66.365 36.121,63.188 35.228,58.807 C34.335,54.426 35.448,50.5 37.714,50.038 C39.98,49.576 42.541,52.753 43.434,57.134" id="Fill-8" fill="#FFFFFE"></path>
                <path d="M86.092,57.134 C85.199,61.515 86.312,65.441 88.578,65.903 C90.844,66.365 93.405,63.188 94.298,58.807 C95.191,54.426 94.078,50.5 91.812,50.038 C89.546,49.576 86.985,52.753 86.092,57.134" id="Fill-9" fill="#FFFFFE"></path>
                <path d="M96.22,66.885 C95.647,58.481 96.08,49.861 93.508,41.84 C90.704,33.094 84.131,25.758 75.981,21.574 C65.831,16.828 56.277,20.369 54.101,21.302 C45.696,25.434 38.886,32.897 36.018,41.84 C33.446,49.861 33.879,58.481 33.306,66.885 C32.733,75.289 30.831,84.196 24.785,90.061 C26.429,90.903 28.64,90.412 29.774,88.954 C29.789,89.744 29.805,90.534 29.82,91.324 C31.358,91.635 33.044,90.556 33.406,89.03 C33.67,90.359 35.001,91.387 36.353,91.308 C37.706,91.229 38.908,90.052 39.015,88.702 C38.837,90.021 40.562,90.928 41.825,90.509 C43.088,90.09 43.907,88.899 44.631,87.783 C44.597,89.607 47.056,90.908 48.544,89.854 C48.365,90.835 49.568,91.536 50.564,91.484 C51.56,91.432 52.519,90.967 53.513,91.047 C55.442,91.202 57.176,93.353 58.942,92.562 C59.714,92.215 60.418,91.326 61.202,91.645 C61.674,91.837 61.869,92.386 62.193,92.781 C62.802,93.526 63.844,93.616 64.763,93.279 C65.682,93.616 66.724,93.526 67.333,92.781 C67.656,92.386 67.851,91.837 68.324,91.645 C69.108,91.326 69.812,92.215 70.584,92.562 C72.35,93.353 74.084,91.202 76.013,91.047 C77.007,90.967 77.966,91.432 78.962,91.484 C79.958,91.536 81.161,90.835 80.982,89.854 C82.47,90.908 84.929,89.607 84.895,87.783 C85.619,88.899 86.438,90.09 87.701,90.509 C88.964,90.928 90.689,90.021 90.511,88.702 C90.618,90.052 91.82,91.229 93.173,91.308 C94.525,91.387 95.856,90.359 96.12,89.03 C96.482,90.556 98.168,91.635 99.706,91.324 C99.721,90.534 99.737,89.744 99.752,88.954 C100.886,90.412 103.097,90.903 104.741,90.061 C98.695,84.196 96.793,75.289 96.22,66.885" id="Fill-10" fill="#FFFFFE"></path>
            </g>
        </g>
    </g>
</svg>