<?xml version="1.0" encoding="UTF-8"?>
<svg width="131px" height="131px" viewBox="0 0 131 131" version="1.1" xmlns="http://www.w3.org/2000/svg" xmlns:xlink="http://www.w3.org/1999/xlink">
    <title>Group</title>
    <g id="Page-1" stroke="none" stroke-width="1" fill="none" fill-rule="evenodd">
        <g id="154901-OV13M6-918" transform="translate(-45.000000, -36.000000)">
            <g id="Group" transform="translate(45.955000, 36.167000)">
                <path d="M129.526,64.764 C129.526,100.531 100.531,129.527 64.763,129.527 C28.995,129.527 0,100.531 0,64.764 C0,28.996 28.995,0 64.763,0 C100.531,0 129.526,28.996 129.526,64.764" id="Fill-48" fill="#B4BDD3"></path>
                <path d="M89.957,54.156 C89.957,72.143 78.677,86.724 64.763,86.724 C50.849,86.724 39.57,72.143 39.57,54.156 C39.57,36.169 50.849,21.588 64.763,21.588 C78.677,21.588 89.957,36.169 89.957,54.156" id="Fill-49" fill="#FFFFFE"></path>
                <path d="M64.763,89.143 C43.689,89.143 25.14,95.583 14.307,105.346 C26.178,120.086 44.363,129.527 64.763,129.527 C85.163,129.527 103.349,120.086 115.22,105.346 C104.386,95.583 85.837,89.143 64.763,89.143" id="Fill-50" fill="#FFFFFE"></path>
                <path d="M67.576,105.892 L61.95,105.892 C56.657,105.892 52.326,101.561 52.326,96.267 L52.326,74.389 C52.326,69.095 56.657,64.764 61.95,64.764 L67.576,64.764 C72.87,64.764 77.201,69.095 77.201,74.389 L77.201,96.267 C77.201,101.561 72.87,105.892 67.576,105.892" id="Fill-51" fill="#FFFFFE"></path>
                <path d="M43.048,55.667 C44.515,59.89 43.933,63.929 41.748,64.688 C39.564,65.447 36.604,62.638 35.137,58.414 C33.671,54.19 34.253,50.152 36.437,49.393 C38.622,48.635 41.582,51.443 43.048,55.667" id="Fill-52" fill="#FFFFFE"></path>
                <path d="M86.478,55.667 C85.011,59.89 85.593,63.929 87.778,64.688 C89.962,65.447 92.922,62.638 94.389,58.414 C95.856,54.19 95.274,50.152 93.089,49.393 C90.904,48.635 87.945,51.443 86.478,55.667" id="Fill-53" fill="#FFFFFE"></path>
                <path d="M42.714,55.53 C39.44,49.575 36.072,43.257 36.24,36.464 C36.408,29.671 41.58,22.5 48.371,22.747 C49.556,22.79 50.744,23.05 51.918,22.883 C54.266,22.549 56.006,20.629 57.912,19.216 C62.209,16.028 68.192,15.272 73.147,17.29 C76.209,18.537 78.801,20.718 81.787,22.138 C87.351,24.782 94.208,24.505 99.54,21.419 C98.428,23.512 96.546,25.183 94.336,26.04 C96.374,26.69 98.631,26.627 100.629,25.865 C99.424,28.047 97.432,29.782 95.106,30.676 C96.83,30.795 98.554,30.914 100.279,31.033 C98.808,33.116 96.706,34.747 94.323,35.656 C95.674,35.7 97.026,35.744 98.377,35.787 C97.37,38.769 94.761,41.154 91.702,41.891 C92.573,41.902 93.444,41.914 94.316,41.926 C91.461,46.045 88.606,50.164 85.751,54.283 C84.936,55.46 84.088,56.668 82.883,57.441 C81.881,58.083 80.702,58.378 79.542,58.638 C71.086,60.534 62.334,61.104 53.704,60.32 C50.752,60.052 47.664,59.566 45.318,57.754 C42.973,55.941 41.716,52.398 43.33,49.912" id="Fill-54" fill="#FFFFFE"></path>
                <path d="M48.522,95.296 C48.708,91.879 49.134,88.474 49.796,85.116 C51.485,87.048 54.352,87.29 56.917,87.395 C60.799,87.552 64.68,87.71 68.562,87.868 C69.015,90.516 69.329,93.63 67.416,95.516 C66.528,96.391 65.304,96.824 64.104,97.158 C61.487,97.886 58.774,98.265 56.059,98.282 C52.837,98.303 48.997,97.337 47.966,94.285 C48.316,93.998 48.665,93.71 49.015,93.423" id="Fill-55" fill="#FFFFFE"></path>
                <path d="M81.004,95.296 C80.819,91.879 80.393,88.474 79.731,85.116 C78.041,87.048 75.174,87.29 72.609,87.395 C68.728,87.552 64.846,87.71 60.964,87.868 C60.511,90.516 60.197,93.63 62.11,95.516 C62.998,96.391 64.222,96.824 65.423,97.158 C68.039,97.886 70.752,98.265 73.467,98.282 C76.689,98.303 80.529,97.337 81.56,94.285 C81.211,93.998 80.861,93.71 80.511,93.423" id="Fill-56" fill="#FFFFFE"></path>
            </g>
        </g>
    </g>
</svg>