<?xml version="1.0" encoding="UTF-8"?>
<svg width="131px" height="131px" viewBox="0 0 131 131" version="1.1" xmlns="http://www.w3.org/2000/svg" xmlns:xlink="http://www.w3.org/1999/xlink">
    <title>Group</title>
    <g id="Page-1" stroke="none" stroke-width="1" fill="none" fill-rule="evenodd">
        <g id="154901-OV13M6-918" transform="translate(-185.000000, -325.000000)">
            <g id="Group" transform="translate(185.237000, 325.526000)">
                <path d="M129.526,64.763 C129.526,100.531 100.531,129.526 64.763,129.526 C28.995,129.526 1.42108547e-14,100.531 1.42108547e-14,64.763 C1.42108547e-14,28.995 28.995,-1.42108547e-14 64.763,-1.42108547e-14 C100.531,-1.42108547e-14 129.526,28.995 129.526,64.763" id="Fill-35" fill="#B4BDD3"></path>
                <path d="M89.956,54.155 C89.956,72.142 78.677,86.723 64.763,86.723 C50.849,86.723 39.569,72.142 39.569,54.155 C39.569,36.169 50.849,21.588 64.763,21.588 C78.677,21.588 89.956,36.169 89.956,54.155" id="Fill-36" fill="#FFFFFE"></path>
                <path d="M64.763,91.748 C43.492,91.748 25.025,97.935 15.704,107.015 C27.58,120.792 45.146,129.526 64.763,129.526 C84.38,129.526 101.946,120.792 113.822,107.015 C104.501,97.935 86.034,91.748 64.763,91.748" id="Fill-37" fill="#FFFFFE"></path>
                <path d="M66.513,105.891 L63.013,105.891 C57.719,105.891 53.388,101.56 53.388,96.267 L53.388,74.388 C53.388,69.094 57.719,64.763 63.013,64.763 L66.513,64.763 C71.807,64.763 76.138,69.094 76.138,74.388 L76.138,96.267 C76.138,101.56 71.807,105.891 66.513,105.891" id="Fill-38" fill="#FFFFFE"></path>
                <path d="M86.657,56.487 C86.067,60.919 87.447,64.759 89.739,65.065 C92.031,65.37 94.368,62.024 94.958,57.593 C95.548,53.161 94.168,49.321 91.876,49.015 C89.583,48.71 87.247,52.055 86.657,56.487" id="Fill-39" fill="#FFFFFE"></path>
                <path d="M42.869,56.487 C43.459,60.919 42.079,64.759 39.787,65.065 C37.495,65.37 35.158,62.024 34.568,57.593 C33.978,53.161 35.358,49.321 37.65,49.015 C39.943,48.71 42.279,52.055 42.869,56.487" id="Fill-40" fill="#FFFFFE"></path>
                <path d="M67,48.524 L62.526,48.524 C55.926,48.524 50.526,43.124 50.526,36.524 L50.526,26.468 C50.526,19.868 55.926,14.468 62.526,14.468 L67,14.468 C73.6,14.468 79,19.868 79,26.468 L79,36.524 C79,43.124 73.6,48.524 67,48.524" id="Fill-41" fill="#FFFFFE"></path>
                <path d="M70.774,65.583 C70.774,65.583 85.926,87.543 111.608,70.05 C111.608,70.05 109.002,79.762 101.93,82.536 C101.93,82.536 107.141,84.938 111.608,80.844 C111.608,80.844 110.584,88.055 105.699,89.172 C105.699,89.172 108.351,90.707 110.584,89.172 C110.584,89.172 106.8,99.082 91.664,99.919 C91.664,99.919 62.369,98.663 70.774,65.583" id="Fill-42" fill="#FFFFFE"></path>
            </g>
        </g>
    </g>
</svg>