<?xml version="1.0" encoding="UTF-8"?>
<svg width="131px" height="131px" viewBox="0 0 131 131" version="1.1" xmlns="http://www.w3.org/2000/svg" xmlns:xlink="http://www.w3.org/1999/xlink">
    <title>Group</title>
    <g id="Page-1" stroke="none" stroke-width="1" fill="none" fill-rule="evenodd">
        <g id="154901-OV13M6-918" transform="translate(-324.000000, -36.000000)">
            <g id="Group" transform="translate(324.519000, 36.167000)">
                <path d="M129.526,64.764 C129.526,100.531 100.531,129.527 64.763,129.527 C28.995,129.527 2.84217094e-14,100.531 2.84217094e-14,64.764 C2.84217094e-14,28.996 28.995,0 64.763,0 C100.531,0 129.526,28.996 129.526,64.764" id="Fill-20" fill="#B4BDD3"></path>
                <path d="M89.956,56.482 C89.956,75.754 78.677,91.376 64.763,91.376 C50.849,91.376 39.569,75.754 39.569,56.482 C39.569,37.211 50.849,21.588 64.763,21.588 C78.677,21.588 89.956,37.211 89.956,56.482" id="Fill-21" fill="#FFFFFE"></path>
                <path d="M64.365,89.143 C43.277,89.143 24.425,94.197 11.887,102.136 C23.617,118.702 42.92,129.527 64.763,129.527 C86.452,129.527 105.636,118.854 117.39,102.486 C104.856,94.346 85.762,89.143 64.365,89.143" id="Fill-22" fill="#FFFFFE"></path>
                <path d="M68.599,105.892 L60.927,105.892 C55.633,105.892 51.302,101.561 51.302,96.267 L51.302,74.389 C51.302,69.095 55.633,64.764 60.927,64.764 L68.599,64.764 C73.893,64.764 78.224,69.095 78.224,74.389 L78.224,96.267 C78.224,101.561 73.893,105.892 68.599,105.892" id="Fill-23" fill="#FFFFFE"></path>
                <path d="M43.548,58.464 C44.302,64.059 43.06,68.909 40.773,69.298 C38.487,69.687 36.022,65.467 35.268,59.873 C34.513,54.279 35.755,49.428 38.042,49.039 C40.328,48.65 42.794,52.87 43.548,58.464" id="Fill-24" fill="#FFFFFE"></path>
                <path d="M85.978,58.464 C85.224,64.059 86.466,68.909 88.752,69.298 C91.039,69.687 93.504,65.467 94.258,59.873 C95.012,54.279 93.77,49.428 91.484,49.039 C89.197,48.65 86.732,52.87 85.978,58.464" id="Fill-25" fill="#FFFFFE"></path>
                <path d="M40.45,55.109 C39.603,49.523 38.756,43.937 37.908,38.351 C37.601,36.323 37.304,34.186 38.044,32.273 C38.784,30.36 40.956,28.837 42.877,29.555 C42.108,25.67 46.407,22.8 50.153,21.51 C56.429,19.349 63.16,18.249 69.744,19.1 C76.328,19.95 82.756,22.863 87.194,27.799 C88.599,29.362 89.809,31.137 90.479,33.129 C91.766,36.961 90.947,41.144 90.116,45.101 C89.457,48.245 88.797,51.389 88.137,54.533 C87.987,55.251 87.819,56.005 87.329,56.55 C86.547,57.42 85.23,57.485 84.061,57.488 C71.569,57.515 59.077,57.542 46.584,57.568046 C44.235,57.574 41.169,56.995 40.859,54.666" id="Fill-26" fill="#FFFFFE"></path>
            </g>
        </g>
    </g>
</svg>