<?xml version="1.0" encoding="UTF-8"?>
<svg width="131px" height="131px" viewBox="0 0 131 131" version="1.1" xmlns="http://www.w3.org/2000/svg" xmlns:xlink="http://www.w3.org/1999/xlink">
    <title>Group</title>
    <g id="Page-1" stroke="none" stroke-width="1" fill="none" fill-rule="evenodd">
        <g id="154901-OV13M6-918" transform="translate(-185.000000, -181.000000)">
            <g id="Group" transform="translate(185.237000, 181.068000)">
                <path d="M129.526,64.763 C129.526,100.531 100.531,129.526 64.763,129.526 C28.995,129.526 1.42108547e-14,100.531 1.42108547e-14,64.763 C1.42108547e-14,28.996 28.995,0 64.763,0 C100.531,0 129.526,28.996 129.526,64.763" id="Fill-11" fill="#B4BDD3"></path>
                <path d="M89.956,57.18 C89.956,76.836 78.677,92.771 64.763,92.771 C50.849,92.771 39.569,76.836 39.569,57.18 C39.569,37.523 42.982,21.588 64.763,21.588 C86.544,21.588 89.956,37.523 89.956,57.18" id="Fill-12" fill="#FFFFFE"></path>
                <path d="M64.763,89.143 C43.689,89.143 25.14,95.583 14.306,105.345 C26.177,120.086 44.363,129.526 64.763,129.526 C85.163,129.526 103.348,120.086 115.219,105.345 C104.386,95.583 85.837,89.143 64.763,89.143" id="Fill-13" fill="#FFFFFE"></path>
                <path d="M70.6,105.892 L58.926,105.892 C53.632,105.892 49.301,101.56 49.301,96.267 L49.301,74.388 C49.301,69.094 53.632,64.763 58.926,64.763 L70.6,64.763 C75.894,64.763 80.225,69.094 80.225,74.388 L80.225,96.267 C80.225,101.56 75.894,105.892 70.6,105.892" id="Fill-14" fill="#FFFFFE"></path>
                <path d="M43.048,55.666 C44.515,59.89 43.933,63.929 41.748,64.687 C39.564,65.446 36.604,62.637 35.137,58.414 C33.67,54.19 34.252,50.151 36.437,49.393 C38.622,48.634 41.582,51.443 43.048,55.666" id="Fill-15" fill="#FFFFFE"></path>
                <path d="M86.478,55.666 C85.011,59.89 85.593,63.929 87.778,64.687 C89.962,65.446 92.922,62.637 94.389,58.414 C95.856,54.19 95.273,50.151 93.089,49.393 C90.904,48.634 87.944,51.443 86.478,55.666" id="Fill-16" fill="#FFFFFE"></path>
                <path d="M83.295,19.913 L46.231,19.913 C42.561,19.913 39.585,22.888 39.585,26.559 L39.585,54.155 L89.941,54.155 L89.941,26.559 C89.941,22.888 86.965,19.913 83.295,19.913" id="Fill-17" fill="#FFFFFE"></path>
                <path d="M60.459,85.327 L42.593,85.327 C43.94,86.776 44.202,88.926 43.244,90.656 L40.578,95.47 L60.459,104.403 L60.459,85.327" id="Fill-18" fill="#FFFFFE"></path>
                <path d="M69.067,85.327 L86.933,85.327 C85.586,86.776 85.324,88.926 86.282,90.656 L88.948,95.47 L69.067,104.403 L69.067,85.327" id="Fill-19" fill="#FFFFFE"></path>
            </g>
        </g>
    </g>
</svg>