<?xml version="1.0" encoding="UTF-8"?>
<svg width="131px" height="131px" viewBox="0 0 131 131" version="1.1" xmlns="http://www.w3.org/2000/svg" xmlns:xlink="http://www.w3.org/1999/xlink">
    <title>Group</title>
    <g id="Page-1" stroke="none" stroke-width="1" fill="none" fill-rule="evenodd">
        <g id="154901-OV13M6-918" transform="translate(-45.000000, -325.000000)">
            <g id="Group" transform="translate(45.955000, 325.526000)">
                <path d="M129.526,64.763 C129.526,100.531 100.531,129.526 64.763,129.526 C28.995,129.526 0,100.531 0,64.763 C0,28.995 28.995,-1.42108547e-14 64.763,-1.42108547e-14 C100.531,-1.42108547e-14 129.526,28.995 129.526,64.763" id="Fill-64" fill="#B4BDD3"></path>
                <path d="M89.957,52.015 C89.957,70.67 78.677,85.793 64.763,85.793 C50.849,85.793 39.57,70.67 39.57,52.015 C39.57,33.36 47.634,18.238 64.763,18.238 C81.892,18.238 89.957,33.36 89.957,52.015" id="Fill-65" fill="#FFFFFE"></path>
                <path d="M64.763,89.142 C41.134,89.142 20.811,94.371 11.703,101.876 C23.414,118.589 42.806,129.526 64.763,129.526 C86.72,129.526 106.112,118.589 117.824,101.876 C108.715,94.371 88.392,89.142 64.763,89.142" id="Fill-66" fill="#FFFFFE"></path>
                <path d="M66.514,105.891 L63.013,105.891 C57.719,105.891 53.388,101.56 53.388,96.267 L53.388,74.388 C53.388,69.094 57.719,64.763 63.013,64.763 L66.514,64.763 C71.807,64.763 76.139,69.094 76.139,74.388 L76.139,96.267 C76.139,101.56 71.807,105.891 66.514,105.891" id="Fill-67" fill="#FFFFFE"></path>
                <path d="M86.682,55.194 C86.81,59.811 88.85,63.5 91.238,63.434 C93.626,63.368 95.458,59.571 95.33,54.954 C95.202,50.337 93.162,46.648 90.774,46.714 C88.386,46.781 86.554,50.577 86.682,55.194" id="Fill-68" fill="#FFFFFE"></path>
                <path d="M42.844,55.194 C42.716,59.811 40.677,63.5 38.289,63.434 C35.9,63.368 34.068,59.571 34.196,54.954 C34.324,50.337 36.364,46.648 38.752,46.714 C41.14,46.781 42.973,50.577 42.844,55.194" id="Fill-69" fill="#FFFFFE"></path>
                <path d="M65.424,41.576 L64.102,41.576 C60.986,41.576 58.436,39.026 58.436,35.91 L58.436,13.745 C58.436,10.628 60.986,8.078 64.102,8.078 L65.424,8.078 C68.541,8.078 71.091,10.628 71.091,13.745 L71.091,35.91 C71.091,39.026 68.541,41.576 65.424,41.576" id="Fill-70" fill="#FFFFFE"></path>
                <path d="M63.015,10.085 C63.388,8.92 64.644,8.198 65.866,8.15 C67.088,8.102 68.268,8.609 69.31,9.25 C71.784,10.774 73.68,13.053 75.793,15.047 C79.008,18.081 82.849,20.524 87.106,21.717 C91.362,22.91 96.049,22.792 100.079,20.974 C91.495,27.033 79.426,27.707 70.221,22.641 C66.328,20.498 62.677,16.808 62.838,12.366" id="Fill-71" fill="#FFFFFE"></path>
            </g>
        </g>
    </g>
</svg>