<?xml version="1.0" encoding="UTF-8"?>
<svg width="131px" height="131px" viewBox="0 0 131 131" version="1.1" xmlns="http://www.w3.org/2000/svg" xmlns:xlink="http://www.w3.org/1999/xlink">
    <title>Group</title>
    <g id="Page-1" stroke="none" stroke-width="1" fill="none" fill-rule="evenodd">
        <g id="154901-OV13M6-918" transform="translate(-185.000000, -36.000000)">
            <g id="Group" transform="translate(185.237000, 36.167000)">
                <path d="M129.526,64.764 C129.526,100.531 100.531,129.527 64.763,129.527 C28.995,129.527 1.42108547e-14,100.531 1.42108547e-14,64.764 C1.42108547e-14,28.996 28.995,0 64.763,0 C100.531,0 129.526,28.996 129.526,64.764" id="Fill-43" fill="#B4BDD3"></path>
                <path d="M89.956,54.156 C89.956,72.143 78.677,86.724 64.763,86.724 C50.849,86.724 39.569,72.143 39.569,54.156 C39.569,36.169 50.849,21.588 64.763,21.588 C78.677,21.588 89.956,36.169 89.956,54.156" id="Fill-44" fill="#FFFFFE"></path>
                <path d="M64.763,129.527 C83.202,129.527 99.828,121.808 111.623,109.441 C105.314,97.672 86.723,89.143 64.763,89.143 C42.803,89.143 24.212,97.672 17.903,109.441 C29.698,121.808 46.324,129.527 64.763,129.527" id="Fill-45" fill="#FFFFFE"></path>
                <path d="M66.513,105.892 L63.013,105.892 C57.719,105.892 53.388,101.561 53.388,96.267 L53.388,74.389 C53.388,69.095 57.719,64.764 63.013,64.764 L66.513,64.764 C71.807,64.764 76.138,69.095 76.138,74.389 L76.138,96.267 C76.138,101.561 71.807,105.892 66.513,105.892" id="Fill-46" fill="#FFFFFE"></path>
                <path d="M91.038,83.814 C95.331,76.416 97.889,67.161 97.889,57.109 C97.889,32.878 83.058,13.235 64.763,13.235 C46.468,13.235 31.637,32.878 31.637,57.109 C31.637,67.161 34.195,76.416 38.488,83.814 L91.038,83.814" id="Fill-47" fill="#FFFFFE"></path>
            </g>
        </g>
    </g>
</svg>