<?xml version="1.0" encoding="UTF-8"?>
<svg width="131px" height="131px" viewBox="0 0 131 131" version="1.1" xmlns="http://www.w3.org/2000/svg" xmlns:xlink="http://www.w3.org/1999/xlink">
    <title>Group</title>
    <g id="Page-1" stroke="none" stroke-width="1" fill="none" fill-rule="evenodd">
        <g id="154901-OV13M6-918" transform="translate(-324.000000, -181.000000)">
            <g id="Group" transform="translate(324.519000, 181.068000)">
                <path d="M129.526,64.763 C129.526,100.531 100.531,129.526 64.763,129.526 C28.995,129.526 2.84217094e-14,100.531 2.84217094e-14,64.763 C2.84217094e-14,28.996 28.995,0 64.763,0 C100.531,0 129.526,28.996 129.526,64.763" id="Fill-27" fill="#B4BDD3"></path>
                <path d="M89.956,55.365 C89.956,74.02 78.677,89.143 64.763,89.143 C50.849,89.143 39.569,74.02 39.569,55.365 C39.569,36.71 50.849,21.588 64.763,21.588 C78.677,21.588 89.956,36.71 89.956,55.365" id="Fill-28" fill="#FFFFFE"></path>
                <path d="M64.763,94.726 C43.14,94.726 24.676,100.556 17.273,108.78 C29.101,121.535 45.995,129.526 64.763,129.526 C83.53,129.526 100.424,121.535 112.252,108.78 C104.85,100.556 86.386,94.726 64.763,94.726" id="Fill-29" fill="#FFFFFE"></path>
                <path d="M66.513,105.892 L63.012,105.892 C57.719,105.892 53.387,101.56 53.387,96.267 L53.387,74.388 C53.387,69.094 57.719,64.763 63.012,64.763 L66.513,64.763 C71.807,64.763 76.138,69.094 76.138,74.388 L76.138,96.267 C76.138,101.56 71.807,105.892 66.513,105.892" id="Fill-30" fill="#FFFFFE"></path>
                <path d="M86.07,58.554 C85.302,62.959 86.526,66.851 88.804,67.248 C91.083,67.646 93.552,64.397 94.32,59.992 C95.088,55.588 93.863,51.695 91.585,51.298 C89.307,50.901 86.837,54.15 86.07,58.554" id="Fill-31" fill="#FFFFFE"></path>
                <path d="M43.456,58.554 C44.224,62.959 42.999,66.851 40.721,67.248 C38.443,67.646 35.974,64.397 35.206,59.992 C34.438,55.588 35.662,51.695 37.941,51.298 C40.219,50.901 42.688,54.15 43.456,58.554" id="Fill-32" fill="#FFFFFE"></path>
                <path d="M44.463,58.847 C41.525,61.142 36.495,59.637 35.299,56.106 C34.105,57.768 31.325,57.927 29.949,56.413 C28.574,54.898 29,52.146 30.769,51.118 C29.25,50.589 28.201,48.948 28.359,47.347 C28.516,45.747 29.865,44.342 31.458,44.12 C30.05,42.682 28.705,40.962 28.615,38.951 C28.524,36.941 30.302,34.783 32.267,35.219 C31.112,34.232 31.539,32.212 32.713,31.246 C33.886,30.281 35.492,30.082 37.003,29.921 C35.663,29.895 34.854,28.176 35.333,26.925 C35.812,25.673 37.126,24.93 38.427,24.612 C41.765,23.795 45.865,24.929 48.292,22.497 C48.792,21.995 49.18,21.365 49.782,20.992 C50.769,20.379 52.037,20.612 53.186,20.445 C54.336,20.277 55.595,19.192 55.094,18.144 C56.677,18.67 58.402,18.763 60.033,18.412 C60.642,18.281 61.271,18.088 61.877,18.235 C62.402,18.363 62.834,18.73 63.212,19.117 C65.851,21.816 66.723,25.744 67.311,29.473 C68.15,34.795 68.644,40.172 68.789,45.558 C68.865,48.378 68.812,51.335 67.464,53.813 C65.868,56.745 62.709,58.503 59.517,59.479 C54.638,60.97 49.313,60.967 44.436,59.47" id="Fill-33" fill="#FFFFFE"></path>
                <path d="M85.063,58.847 C88.001,61.142 93.031,59.637 94.227,56.106 C95.42,57.768 98.201,57.927 99.576,56.413 C100.952,54.898 100.526,52.146 98.757,51.118 C100.275,50.589 101.324,48.948 101.167,47.347 C101.009,45.747 99.66,44.342 98.068,44.12 C99.476,42.682 100.82,40.962 100.911,38.951 C101.001,36.941 99.223,34.783 97.259,35.219 C98.414,34.232 97.987,32.212 96.813,31.246 C95.639,30.281 94.034,30.082 92.523,29.921 C93.862,29.895 94.671,28.176 94.192,26.925 C93.713,25.673 92.4,24.93 91.098,24.612 C87.761,23.795 83.661,24.929 81.234,22.497 C80.733,21.995 80.346,21.365 79.743,20.992 C78.756,20.379 77.489,20.612 76.339,20.445 C75.19,20.277 73.931,19.192 74.432,18.144 C72.848,18.67 71.124,18.763 69.493,18.412 C68.883,18.281 68.255,18.088 67.649,18.235 C67.123,18.363 66.691,18.73 66.313,19.117 C63.674,21.816 62.803,25.744 62.215,29.473 C61.376,34.795 60.882,40.172 60.737,45.558 C60.661,48.378 60.713,51.335 62.062,53.813 C63.657,56.745 66.817,58.503 70.009,59.479 C74.888,60.97 80.213,60.967 85.09,59.47" id="Fill-34" fill="#FFFFFE"></path>
            </g>
        </g>
    </g>
</svg>