<?xml version="1.0" encoding="UTF-8"?>
<svg width="131px" height="131px" viewBox="0 0 131 131" version="1.1" xmlns="http://www.w3.org/2000/svg" xmlns:xlink="http://www.w3.org/1999/xlink">
    <title>Group</title>
    <g id="Page-1" stroke="none" stroke-width="1" fill="none" fill-rule="evenodd">
        <g id="154901-OV13M6-918" transform="translate(-45.000000, -181.000000)">
            <g id="Group" transform="translate(45.955000, 181.068000)">
                <path d="M129.526,64.763 C129.526,100.531 100.531,129.526 64.763,129.526 C28.995,129.526 0,100.531 0,64.763 C0,28.996 28.995,0 64.763,0 C100.531,0 129.526,28.996 129.526,64.763" id="Fill-57" fill="#B4BDD3"></path>
                <path d="M89.957,54.155 C89.957,72.142 78.677,86.723 64.763,86.723 C50.849,86.723 39.57,72.142 39.57,54.155 C39.57,36.169 50.849,21.588 64.763,21.588 C78.677,21.588 89.957,36.169 89.957,54.155" id="Fill-58" fill="#FFFFFE"></path>
                <path d="M64.763,89.143 C44.493,89.143 26.643,96.462 16.182,107.567 C28.049,121.026 45.409,129.526 64.763,129.526 C84.117,129.526 101.477,121.026 113.344,107.567 C102.883,96.462 85.033,89.143 64.763,89.143" id="Fill-59" fill="#FFFFFE"></path>
                <path d="M66.514,105.892 L63.013,105.892 C57.719,105.892 53.388,101.56 53.388,96.267 L53.388,74.388 C53.388,69.094 57.719,64.763 63.013,64.763 L66.514,64.763 C71.807,64.763 76.139,69.094 76.139,74.388 L76.139,96.267 C76.139,101.56 71.807,105.892 66.514,105.892" id="Fill-60" fill="#FFFFFE"></path>
                <path d="M43.048,55.666 C44.515,59.89 43.933,63.929 41.748,64.687 C39.564,65.446 36.604,62.637 35.137,58.414 C33.671,54.19 34.253,50.151 36.437,49.393 C38.622,48.634 41.582,51.443 43.048,55.666" id="Fill-61" fill="#FFFFFE"></path>
                <path d="M86.478,55.666 C85.011,59.89 85.593,63.929 87.778,64.687 C89.962,65.446 92.922,62.637 94.389,58.414 C95.856,54.19 95.274,50.151 93.089,49.393 C90.904,48.634 87.945,51.443 86.478,55.666" id="Fill-62" fill="#FFFFFE"></path>
                <path d="M95.671,58.48 C95.118,50.439 95.392,42.186 92.805,34.552 C89.897,25.975 83.201,18.639 74.711,15.484 C66.221,12.329 56.088,13.63 48.994,19.26 C46.509,21.233 44.274,24.065 44.524,27.229 C40.216,25.771 35.413,28.831 33.399,32.909 C31.386,36.988 31.485,41.754 31.771,46.293 C32.61,59.597 34.638,73.235 31.039,86.056 C42.08,86.39 53.12,86.725 64.161,87.059 C67.696,87.166 71.235,87.273 74.768,87.12 C83.783,86.731 93.128,84.7 101.619,87.756 C98.363,78.315 96.357,68.443 95.671,58.48" id="Fill-63" fill="#FFFFFE"></path>
            </g>
        </g>
    </g>
</svg>